<svg xmlns="http://www.w3.org/2000/svg" width="960" height="1280" viewBox="0 0 960 1280" role="img" aria-label="天蝎座每日好运卡">
  <defs>
    <style>
      text {
        font-family: "PingFang SC", "Microsoft YaHei", "Noto Sans CJK SC", Arial, sans-serif;
      }
    </style>
    <pattern id="stripe" width="18" height="18" patternUnits="userSpaceOnUse" patternTransform="rotate(35)">
      <rect width="18" height="18" fill="#f8fdf9"/>
      <rect width="8" height="18" fill="#edf8f1"/>
    </pattern>
    <linearGradient id="cardFrame" x1="0" y1="0" x2="1" y2="1">
      <stop offset="0" stop-color="#bfe8cf"/>
      <stop offset="1" stop-color="#86d3a4"/>
    </linearGradient>
  </defs>
  <rect x="38" y="24" width="884" height="1232" rx="56" fill="url(#cardFrame)"/>
  <rect x="68" y="70" width="824" height="1124" rx="8" fill="url(#stripe)" stroke="#d5efdc" stroke-width="4"/>
  <path d="M70 128 H890" stroke="#ffffff" stroke-width="8" opacity="0.9"/>
  <text x="480" y="156" text-anchor="middle" font-size="84" font-weight="900" fill="#4f9f72">天蝎座</text>
  <text x="280" y="134" text-anchor="middle" font-size="42" fill="#4f9f72">✧</text>
  <text x="690" y="150" text-anchor="middle" font-size="42" fill="#4f9f72">✦</text>
  <rect x="110" y="216" width="238" height="278" rx="28" fill="#f6fcf8" stroke="#97d7aa" stroke-width="4"/>
  
  
  <circle cx="229" cy="332" r="72" fill="#fff0da" stroke="#e3bb7a" stroke-width="3"/>
  <path d="M154 286 C190 236 268 236 304 286 C262 272 196 272 154 286Z" fill="#e3c060"/>
  <path d="M174 414 C190 376 268 376 286 414 L314 470 H144Z" fill="#8c6aa8"/>
  <circle cx="205" cy="334" r="7" fill="#705368"/>
  <circle cx="253" cy="334" r="7" fill="#705368"/>
  <path d="M214 364 C224 374 238 374 248 364" fill="none" stroke="#705368" stroke-width="5" stroke-linecap="round"/>
  
  <path d="M292 422 C336 414 342 372 312 362 C350 354 354 320 324 306" fill="none" stroke="#d36a82" stroke-width="10" stroke-linecap="round"/>
  <path d="M324 306 L342 306 L332 322 Z" fill="#d36a82"/>
  <text x="229" y="462" text-anchor="middle" font-size="54" font-weight="900" fill="#ffffff">♏︎</text>
  <text x="390" y="254" text-anchor="start" font-size="38" font-weight="700" fill="#3f8962">今日简述：小财进账日</text>
<text x="390" y="314" text-anchor="start" font-size="38" font-weight="700" fill="#3f8962">今日分数：66</text>
<text x="390" y="374" text-anchor="start" font-size="38" font-weight="700" fill="#3f8962">合拍星座：巨蟹座、双鱼座</text>
<text x="390" y="434" text-anchor="start" font-size="38" font-weight="700" fill="#3f8962">建议：先做最关键的小事</text>
<text x="390" y="494" text-anchor="start" font-size="38" font-weight="700" fill="#3f8962">避免：把所有事都揽下</text>
  <rect x="94" y="548" width="342" height="56" rx="22" fill="#fbfffc" stroke="#70bd89" stroke-width="3"/>
<rect x="94" y="548" width="110" height="56" rx="22" fill="#66b985"/>
<text x="149" y="586" text-anchor="middle" font-size="33" font-weight="800" fill="#ffffff">财富</text>
<text x="320" y="586" text-anchor="middle" font-size="31" font-weight="700" fill="#3f8962">小额进账</text>
<rect x="486" y="548" width="342" height="56" rx="22" fill="#fbfffc" stroke="#70bd89" stroke-width="3"/>
<rect x="486" y="548" width="110" height="56" rx="22" fill="#66b985"/>
<text x="541" y="586" text-anchor="middle" font-size="33" font-weight="800" fill="#ffffff">事业</text>
<text x="712" y="586" text-anchor="middle" font-size="31" font-weight="700" fill="#3f8962">流程卡顿</text>
<rect x="94" y="624" width="342" height="56" rx="22" fill="#fbfffc" stroke="#70bd89" stroke-width="3"/>
<rect x="94" y="624" width="110" height="56" rx="22" fill="#66b985"/>
<text x="149" y="662" text-anchor="middle" font-size="33" font-weight="800" fill="#ffffff">感情</text>
<text x="320" y="662" text-anchor="middle" font-size="31" font-weight="700" fill="#3f8962">轻松互动</text>
<rect x="486" y="624" width="342" height="56" rx="22" fill="#fbfffc" stroke="#70bd89" stroke-width="3"/>
<rect x="486" y="624" width="110" height="56" rx="22" fill="#66b985"/>
<text x="541" y="662" text-anchor="middle" font-size="33" font-weight="800" fill="#ffffff">健康</text>
<text x="712" y="662" text-anchor="middle" font-size="31" font-weight="700" fill="#3f8962">少点外卖</text>
  <rect x="94" y="712" width="772" height="56" rx="22" fill="#66b985"/>
<rect x="94" y="712" width="148" height="56" rx="22" fill="#fbfffc" stroke="#66b985" stroke-width="3"/>
<text x="168" y="750" text-anchor="middle" font-size="34" font-weight="800" fill="#3f8962">复合运</text>
<text x="270" y="750" font-size="30" font-weight="700" fill="#ffffff">旧情绪还在，适合把话说短一点。</text>
<rect x="94" y="788" width="772" height="56" rx="22" fill="#66b985"/>
<rect x="94" y="788" width="148" height="56" rx="22" fill="#fbfffc" stroke="#66b985" stroke-width="3"/>
<text x="168" y="826" text-anchor="middle" font-size="34" font-weight="800" fill="#3f8962">脱单运</text>
<text x="270" y="826" font-size="30" font-weight="700" fill="#ffffff">主动一点会有回应，但别过度迎合。</text>
<rect x="94" y="864" width="772" height="56" rx="22" fill="#66b985"/>
<rect x="94" y="864" width="148" height="56" rx="22" fill="#fbfffc" stroke="#66b985" stroke-width="3"/>
<text x="168" y="902" text-anchor="middle" font-size="34" font-weight="800" fill="#3f8962">求职运</text>
<text x="270" y="902" font-size="30" font-weight="700" fill="#ffffff">需要多权衡利弊，别被条件带跑。</text>
  <rect x="94" y="928" width="772" height="188" rx="18" fill="#fbfffc" stroke="#66b985" stroke-width="4"/>
  <text x="168" y="1002" text-anchor="middle" font-size="44" font-weight="900" fill="#3f8962">今日</text>
  <text x="168" y="1058" text-anchor="middle" font-size="44" font-weight="900" fill="#3f8962">必做</text>
  <path d="M242 952 V1092" stroke="#66b985" stroke-width="4"/>
  <circle cx="282" cy="974" r="14" fill="none" stroke="#66b985" stroke-width="4"/>
<path d="M274 972 L281 980 L295 963" fill="none" stroke="#66b985" stroke-width="5" stroke-linecap="round" stroke-linejoin="round"/>
<text x="316" y="984" font-size="31" font-weight="700" fill="#3f8962">买一束喜欢的鲜花。</text>
<circle cx="282" cy="1022" r="14" fill="none" stroke="#66b985" stroke-width="4"/>
<path d="M274 1020 L281 1028 L295 1011" fill="none" stroke="#66b985" stroke-width="5" stroke-linecap="round" stroke-linejoin="round"/>
<text x="316" y="1032" font-size="31" font-weight="700" fill="#3f8962">写下今天最重要的一件事。</text>
<circle cx="282" cy="1070" r="14" fill="none" stroke="#66b985" stroke-width="4"/>
<path d="M274 1068 L281 1076 L295 1059" fill="none" stroke="#66b985" stroke-width="5" stroke-linecap="round" stroke-linejoin="round"/>
<text x="316" y="1080" font-size="31" font-weight="700" fill="#3f8962">给重要的人回一句准话。</text>
  <text x="94" y="1182" font-size="39" font-weight="900" fill="#3f8962">好运口号：</text>
  <text x="292" y="1182" font-size="36" font-weight="800" fill="#3f8962">拒绝绑架，顺从自己的内心吧~</text>
  <text x="480" y="1226" text-anchor="middle" font-size="24" fill="#ffffff">······  ✧  ······</text>
</svg>
